<?xml version="1.0" encoding="UTF-8"?>
<!DOCTYPE svg PUBLIC "-//W3C//DTD SVG 1.1//EN" "http://www.w3.org/Graphics/SVG/1.1/DTD/svg11.dtd">
<svg xmlns="http://www.w3.org/2000/svg" version="1.1" width="3125px" height="1875px" style="shape-rendering:geometricPrecision; text-rendering:geometricPrecision; image-rendering:optimizeQuality; fill-rule:evenodd; clip-rule:evenodd" xmlns:xlink="http://www.w3.org/1999/xlink">
<g><path style="opacity:0.991" fill="#fefffe" d="M 217.5,605.5 C 294.834,605.333 372.167,605.5 449.5,606C 540.386,613.192 615.552,651.025 675,719.5C 734.597,789.294 761.264,870.294 755,962.5C 748.721,1047.88 714.887,1120.04 653.5,1179C 593.874,1236.13 522.541,1266.46 439.5,1270C 367.833,1270.67 296.167,1270.67 224.5,1270C 180.751,1265.71 146.917,1245.21 123,1208.5C 111.432,1189.13 105.099,1168.13 104,1145.5C 103.013,1001.48 103.346,857.478 105,713.5C 114.057,667.445 139.891,634.612 182.5,615C 193.91,610.4 205.576,607.233 217.5,605.5 Z M 228.5,633.5 C 278.373,634.345 312.206,658.012 330,704.5C 331.846,711.065 333.18,717.731 334,724.5C 334.709,870.187 335.709,1015.85 337,1161.5C 341.263,1183.86 352.097,1202.36 369.5,1217C 384.637,1229.9 401.971,1238.57 421.5,1243C 358.833,1243.67 296.167,1243.67 233.5,1243C 195.385,1240.86 166.218,1223.69 146,1191.5C 138.118,1177.85 133.451,1163.19 132,1147.5C 131.013,1005.14 131.346,862.811 133,720.5C 140.456,684.075 160.956,657.909 194.5,642C 205.571,637.566 216.904,634.732 228.5,633.5 Z M 363.5,867.5 C 387.502,867.333 411.502,867.5 435.5,868C 458.827,872.325 476.327,884.825 488,905.5C 503.695,946.082 493.195,977.915 456.5,1001C 448.627,1004.96 440.293,1007.29 431.5,1008C 408.836,1008.5 386.169,1008.67 363.5,1008.5C 363.5,961.5 363.5,914.5 363.5,867.5 Z"/></g>
<g><path style="opacity:0.98" fill="#fefffe" d="M 1922.5,680.5 C 1925.27,682.087 1927.93,683.92 1930.5,686C 2004.7,755.201 2079.2,824.034 2154,892.5C 2154.5,825.167 2154.67,757.834 2154.5,690.5C 2175.83,690.5 2197.17,690.5 2218.5,690.5C 2218.83,801.835 2218.5,913.169 2217.5,1024.5C 2140.52,955.352 2063.68,886.018 1987,816.5C 1986.5,880.832 1986.33,945.166 1986.5,1009.5C 1965.17,1009.5 1943.83,1009.5 1922.5,1009.5C 1922.5,899.833 1922.5,790.167 1922.5,680.5 Z"/></g>
<g><path style="opacity:0.981" fill="#fefffe" d="M 1308.5,689.5 C 1329.83,689.5 1351.17,689.5 1372.5,689.5C 1372.5,796.167 1372.5,902.833 1372.5,1009.5C 1351.17,1009.5 1329.83,1009.5 1308.5,1009.5C 1308.5,902.833 1308.5,796.167 1308.5,689.5 Z"/></g>
<g><path style="opacity:0.978" fill="#fefffe" d="M 1445.5,689.5 C 1544.17,689.5 1642.83,689.5 1741.5,689.5C 1741.5,707.5 1741.5,725.5 1741.5,743.5C 1664.17,743.5 1586.83,743.5 1509.5,743.5C 1509.5,769.833 1509.5,796.167 1509.5,822.5C 1573.17,822.5 1636.83,822.5 1700.5,822.5C 1700.5,840.5 1700.5,858.5 1700.5,876.5C 1636.83,876.5 1573.17,876.5 1509.5,876.5C 1509.5,920.833 1509.5,965.167 1509.5,1009.5C 1488.17,1009.5 1466.83,1009.5 1445.5,1009.5C 1445.5,902.833 1445.5,796.167 1445.5,689.5 Z"/></g>
<g><path style="opacity:0.981" fill="#fefffe" d="M 1777.5,689.5 C 1798.83,689.5 1820.17,689.5 1841.5,689.5C 1841.5,796.167 1841.5,902.833 1841.5,1009.5C 1820.17,1009.5 1798.83,1009.5 1777.5,1009.5C 1777.5,902.833 1777.5,796.167 1777.5,689.5 Z"/></g>
<g><path style="opacity:0.981" fill="#fefffe" d="M 2286.5,689.5 C 2307.83,689.5 2329.17,689.5 2350.5,689.5C 2350.5,796.167 2350.5,902.833 2350.5,1009.5C 2329.17,1009.5 2307.83,1009.5 2286.5,1009.5C 2286.5,902.833 2286.5,796.167 2286.5,689.5 Z"/></g>
<g><path style="opacity:0.981" fill="#fefffe" d="M 2385.5,689.5 C 2484.17,689.5 2582.83,689.5 2681.5,689.5C 2681.5,707.5 2681.5,725.5 2681.5,743.5C 2642.83,743.5 2604.17,743.5 2565.5,743.5C 2565.5,832.167 2565.5,920.833 2565.5,1009.5C 2544.5,1009.5 2523.5,1009.5 2502.5,1009.5C 2502.5,920.833 2502.5,832.167 2502.5,743.5C 2463.5,743.5 2424.5,743.5 2385.5,743.5C 2385.5,725.5 2385.5,707.5 2385.5,689.5 Z"/></g>
<g><path style="opacity:0.984" fill="#fefffe" d="M 950.5,690.5 C 1001.5,690.333 1052.5,690.5 1103.5,691C 1158.78,697.531 1200.28,724.698 1228,772.5C 1254.01,827.038 1252.34,880.705 1223,933.5C 1195.71,976.078 1156.88,1000.91 1106.5,1008C 1054.52,1009.42 1002.52,1009.92 950.5,1009.5C 950.5,903.167 950.5,796.833 950.5,690.5 Z M 1014.5,752.5 C 1039.5,752.333 1064.5,752.5 1089.5,753C 1122.36,756.502 1148.19,771.669 1167,798.5C 1179.72,821.853 1183.05,846.519 1177,872.5C 1163.86,915.298 1135.02,939.798 1090.5,946C 1065.17,946.5 1039.84,946.667 1014.5,946.5C 1014.5,881.833 1014.5,817.167 1014.5,752.5 Z"/></g>
<g><path style="opacity:0.983" fill="#fefffe" d="M 2717.5,691.5 C 2742,690.171 2766.67,690.171 2791.5,691.5C 2817.13,737.628 2842.97,783.628 2869,829.5C 2895.09,783.662 2920.92,737.662 2946.5,691.5C 2971.17,690.167 2995.83,690.167 3020.5,691.5C 2981.47,760.706 2942.63,830.039 2904,899.5C 2903.5,936.165 2903.33,972.832 2903.5,1009.5C 2880.83,1009.5 2858.17,1009.5 2835.5,1009.5C 2835.67,973.498 2835.5,937.498 2835,901.5C 2796.06,831.276 2756.89,761.276 2717.5,691.5 Z"/></g>
<g><path style="opacity:0.905" fill="#fefffe" d="M 1300.5,1087.5 C 1302.43,1088.64 1303.93,1090.31 1305,1092.5C 1324.09,1126.34 1342.92,1160.34 1361.5,1194.5C 1356.28,1195.8 1351.11,1195.8 1346,1194.5C 1331.25,1168 1316.25,1141.67 1301,1115.5C 1286.59,1141.99 1271.92,1168.33 1257,1194.5C 1251.93,1195.47 1246.76,1195.8 1241.5,1195.5C 1260.63,1159.25 1280.29,1123.25 1300.5,1087.5 Z"/></g>
<g><path style="opacity:0.923" fill="#fefffe" d="M 950.5,1093.5 C 955.167,1093.5 959.833,1093.5 964.5,1093.5C 964.5,1123.5 964.5,1153.5 964.5,1183.5C 989.833,1183.5 1015.17,1183.5 1040.5,1183.5C 1040.5,1187.5 1040.5,1191.5 1040.5,1195.5C 1010.5,1195.5 980.5,1195.5 950.5,1195.5C 950.5,1161.5 950.5,1127.5 950.5,1093.5 Z"/></g>
<g><path style="opacity:0.932" fill="#fefffe" d="M 1581.5,1093.5 C 1602.5,1093.33 1623.5,1093.5 1644.5,1094C 1664.72,1098.94 1672.22,1111.44 1667,1131.5C 1665.44,1134.78 1663.27,1137.62 1660.5,1140C 1672.97,1149.76 1676.81,1162.26 1672,1177.5C 1667.62,1185.95 1660.79,1191.45 1651.5,1194C 1628.21,1195.45 1604.88,1195.95 1581.5,1195.5C 1581.5,1161.5 1581.5,1127.5 1581.5,1093.5 Z M 1594.5,1105.5 C 1611.22,1105.06 1627.89,1105.56 1644.5,1107C 1655.37,1113.15 1657.37,1121.48 1650.5,1132C 1649.17,1132.67 1647.83,1133.33 1646.5,1134C 1629.17,1134.5 1611.84,1134.67 1594.5,1134.5C 1594.5,1124.83 1594.5,1115.17 1594.5,1105.5 Z M 1594.5,1146.5 C 1611.5,1146.33 1628.5,1146.5 1645.5,1147C 1659.08,1152.75 1662.58,1162.25 1656,1175.5C 1653.22,1178.81 1649.72,1180.97 1645.5,1182C 1628.54,1183.39 1611.54,1183.89 1594.5,1183.5C 1594.5,1171.17 1594.5,1158.83 1594.5,1146.5 Z"/></g>
<g><path style="opacity:0.907" fill="#fefffe" d="M 1910.5,1093.5 C 1919.84,1093.33 1929.17,1093.5 1938.5,1094C 1952.71,1095.35 1964.21,1101.52 1973,1112.5C 1975.27,1117.25 1976.44,1122.25 1976.5,1127.5C 1971.83,1127.5 1967.17,1127.5 1962.5,1127.5C 1960.51,1115.67 1953.51,1108.51 1941.5,1106C 1924.46,1102.54 1908.12,1104.54 1892.5,1112C 1880.48,1123.19 1882.14,1131.52 1897.5,1137C 1915.13,1138.25 1932.8,1138.91 1950.5,1139C 1975.72,1141.85 1983.89,1155.01 1975,1178.5C 1966.55,1187.66 1956.05,1192.83 1943.5,1194C 1922.64,1197.46 1902.64,1194.79 1883.5,1186C 1874.4,1180.39 1869.73,1172.22 1869.5,1161.5C 1874.5,1161.5 1879.5,1161.5 1884.5,1161.5C 1884.49,1166.64 1886.49,1170.8 1890.5,1174C 1904.63,1182.76 1919.96,1185.76 1936.5,1183C 1943.97,1182.05 1950.97,1179.72 1957.5,1176C 1964.16,1171.2 1965.99,1165.03 1963,1157.5C 1957.2,1152.34 1950.36,1149.84 1942.5,1150C 1927.17,1149.67 1911.83,1149.33 1896.5,1149C 1888.4,1147.86 1881.23,1144.7 1875,1139.5C 1866.63,1126.45 1868.47,1114.95 1880.5,1105C 1889.88,1099.27 1899.88,1095.43 1910.5,1093.5 Z"/></g>
<g><path style="opacity:0.872" fill="#fefffe" d="M 1297.5,1178.5 C 1304.9,1176.86 1309.23,1179.69 1310.5,1187C 1307.12,1196.31 1301.62,1197.81 1294,1191.5C 1291.35,1186.04 1292.51,1181.71 1297.5,1178.5 Z"/></g>
</svg>
